<?xml version="1.0" encoding="UTF-8"?>
<!DOCTYPE svg PUBLIC "-//W3C//DTD SVG 1.1//EN" "http://www.w3.org/Graphics/SVG/1.1/DTD/svg11.dtd">
<svg xmlns="http://www.w3.org/2000/svg" version="1.1" width="820px" height="248px" style="shape-rendering:geometricPrecision; text-rendering:geometricPrecision; image-rendering:optimizeQuality; fill-rule:evenodd; clip-rule:evenodd" xmlns:xlink="http://www.w3.org/1999/xlink">
<g><path style="opacity:1" fill="#f5f5f5" d="M -0.5,-0.5 C 272.833,-0.5 546.167,-0.5 819.5,-0.5C 819.5,82.1667 819.5,164.833 819.5,247.5C 546.167,247.5 272.833,247.5 -0.5,247.5C -0.5,164.833 -0.5,82.1667 -0.5,-0.5 Z"/></g>
<g><path style="opacity:1" fill="#2d2b2c" d="M 674.5,41.5 C 496.812,41.1717 319.145,41.5051 141.5,42.5C 141.918,41.7784 142.584,41.2784 143.5,41C 320.667,40.1671 497.667,40.3338 674.5,41.5 Z"/></g>
<g><path style="opacity:1" fill="#221f20" d="M 674.5,41.5 C 682.19,42.8498 687.523,47.1831 690.5,54.5C 691.479,99.1431 691.813,143.81 691.5,188.5C 689.581,198.751 683.581,205.085 673.5,207.5C 497.127,207.831 320.793,207.497 144.5,206.5C 135.717,204.051 130.384,198.384 128.5,189.5C 128.333,146.165 128.5,102.832 129,59.5C 130.604,56.753 131.438,53.753 131.5,50.5C 133.963,46.6998 137.296,44.0332 141.5,42.5C 319.145,41.5051 496.812,41.1717 674.5,41.5 Z"/></g>
<g><path style="opacity:1" fill="#2f2b2c" d="M 131.5,50.5 C 131.438,53.753 130.604,56.753 129,59.5C 128.5,102.832 128.333,146.165 128.5,189.5C 127.335,145.335 127.169,101.002 128,56.5C 128.941,54.2726 130.108,52.2726 131.5,50.5 Z"/></g>
<g><path style="opacity:1" fill="#393738" d="M 690.5,54.5 C 691.268,55.2625 691.768,56.2625 692,57.5C 692.831,101.335 692.665,145.002 691.5,188.5C 691.813,143.81 691.479,99.1431 690.5,54.5 Z"/></g>
<g><path style="opacity:1" fill="#dbdadb" d="M 233.5,95.5 C 231.865,91.427 230.865,87.0937 230.5,82.5C 229.44,76.9047 226.107,75.0714 220.5,77C 215.107,77.5681 211.774,80.4015 210.5,85.5C 209.834,90.3489 209.167,95.3489 208.5,100.5C 207.505,95.2079 207.172,89.8746 207.5,84.5C 208.156,79.713 210.822,76.5464 215.5,75C 220.076,73.5236 224.743,73.1902 229.5,74C 231.617,75.7309 233.117,77.8976 234,80.5C 234.816,85.6842 234.65,90.6842 233.5,95.5 Z"/></g>
<g><path style="opacity:1" fill="#8e8c8d" d="M 241.5,81.5 C 239.219,81.0773 237.552,81.744 236.5,83.5C 235.596,82.791 235.263,81.791 235.5,80.5C 237.735,80.2053 239.735,80.5386 241.5,81.5 Z"/></g>
<g><path style="opacity:1" fill="#e0dfdf" d="M 390.5,81.5 C 391.5,81.5 392.5,81.5 393.5,81.5C 393.5,90.8333 393.5,100.167 393.5,109.5C 392.5,109.5 391.5,109.5 390.5,109.5C 390.5,100.167 390.5,90.8333 390.5,81.5 Z"/></g>
<g><path style="opacity:1" fill="#5b595a" d="M 451.5,81.5 C 451.665,85.1817 451.499,88.8484 451,92.5C 450.283,91.9558 449.783,91.2891 449.5,90.5C 450.167,87.5 450.833,84.5 451.5,81.5 Z"/></g>
<g><path style="opacity:1" fill="#ebebeb" d="M 451.5,81.5 C 452.167,81.5 452.833,81.5 453.5,81.5C 454.138,90.8955 453.471,99.8955 451.5,108.5C 451.44,107.957 451.107,107.624 450.5,107.5C 448.132,109.223 445.466,109.89 442.5,109.5C 440.547,108.374 439.047,106.708 438,104.5C 435.786,94.2435 439.619,89.5768 449.5,90.5C 449.783,91.2891 450.283,91.9558 451,92.5C 451.499,88.8484 451.665,85.1817 451.5,81.5 Z"/></g>
<g><path style="opacity:1" fill="#bdbbbc" d="M 453.5,81.5 C 454.494,90.6517 454.827,99.985 454.5,109.5C 453.209,109.737 452.209,109.404 451.5,108.5C 453.471,99.8955 454.138,90.8955 453.5,81.5 Z"/></g>
<g><path style="opacity:1" fill="#676566" d="M 309.5,83.5 C 305.833,83.5 302.167,83.5 298.5,83.5C 298.5,92.1667 298.5,100.833 298.5,109.5C 297.507,100.682 297.173,91.6822 297.5,82.5C 301.702,82.1832 305.702,82.5166 309.5,83.5 Z"/></g>
<g><path style="opacity:1" fill="#d6d5d6" d="M 223.5,97.5 C 221.692,96.0821 221.025,94.0821 221.5,91.5C 221.703,86.9642 224.036,84.2976 228.5,83.5C 228.338,85.8244 227.172,87.4911 225,88.5C 224.819,91.6946 224.319,94.6946 223.5,97.5 Z"/></g>
<g><path style="opacity:1" fill="#dcdbdb" d="M 241.5,81.5 C 243.113,81.9443 244.28,82.9443 245,84.5C 245.498,87.4816 245.665,90.4816 245.5,93.5C 244.5,93.5 243.5,93.5 242.5,93.5C 242.664,90.8127 242.497,88.146 242,85.5C 240.556,83.8446 238.722,83.178 236.5,83.5C 237.552,81.744 239.219,81.0773 241.5,81.5 Z"/></g>
<g><path style="opacity:1" fill="#e2e2e2" d="M 309.5,83.5 C 313.268,84.1372 316.101,86.1372 318,89.5C 320.207,104.461 313.707,111.128 298.5,109.5C 298.5,100.833 298.5,92.1667 298.5,83.5C 302.167,83.5 305.833,83.5 309.5,83.5 Z"/></g>
<g><path style="opacity:1" fill="#e1e1e1" d="M 476.5,90.5 C 475.817,92.1765 474.483,92.8432 472.5,92.5C 472.5,98.1667 472.5,103.833 472.5,109.5C 471.5,109.5 470.5,109.5 469.5,109.5C 469.5,104.167 469.5,98.8333 469.5,93.5C 468.5,93.5 467.5,93.5 466.5,93.5C 466.5,92.5 466.5,91.5 466.5,90.5C 467.5,90.5 468.5,90.5 469.5,90.5C 468.133,83.8716 470.8,80.5383 477.5,80.5C 477.5,81.5 477.5,82.5 477.5,83.5C 475.856,83.2865 474.356,83.6198 473,84.5C 472.505,86.4727 472.338,88.4727 472.5,90.5C 473.833,90.5 475.167,90.5 476.5,90.5 Z"/></g>
<g><path style="opacity:1" fill="#615f60" d="M 230.5,82.5 C 230.865,87.0937 231.865,91.427 233.5,95.5C 232.791,96.404 231.791,96.7373 230.5,96.5C 230.5,91.8333 230.5,87.1667 230.5,82.5 Z"/></g>
<g><path style="opacity:1" fill="#403d3e" d="M 308.5,86.5 C 306.5,86.5 304.5,86.5 302.5,86.5C 302.5,92.8333 302.5,99.1667 302.5,105.5C 304.833,105.5 307.167,105.5 309.5,105.5C 307.052,106.473 304.385,106.806 301.5,106.5C 301.5,99.5 301.5,92.5 301.5,85.5C 304.059,85.1984 306.393,85.5318 308.5,86.5 Z"/></g>
<g><path style="opacity:1" fill="#242021" d="M 308.5,86.5 C 313.422,87.4281 315.756,90.4281 315.5,95.5C 315.889,100.395 313.889,103.729 309.5,105.5C 307.167,105.5 304.833,105.5 302.5,105.5C 302.5,99.1667 302.5,92.8333 302.5,86.5C 304.5,86.5 306.5,86.5 308.5,86.5 Z"/></g>
<g><path style="opacity:1" fill="#797677" d="M 207.5,84.5 C 207.172,89.8746 207.505,95.2079 208.5,100.5C 209.167,95.3489 209.834,90.3489 210.5,85.5C 210.5,90.8333 210.5,96.1667 210.5,101.5C 209.167,101.5 207.833,101.5 206.5,101.5C 206.178,95.642 206.511,89.9753 207.5,84.5 Z"/></g>
<g><path style="opacity:1" fill="#e2e1e2" d="M 370.5,90.5 C 372.124,90.3601 373.29,91.0267 374,92.5C 377.465,89.872 380.965,89.872 384.5,92.5C 385.454,98.1045 385.788,103.771 385.5,109.5C 384.5,109.5 383.5,109.5 382.5,109.5C 382.666,104.489 382.499,99.4889 382,94.5C 379.084,92.9865 376.418,93.3199 374,95.5C 373.501,100.155 373.334,104.821 373.5,109.5C 372.5,109.5 371.5,109.5 370.5,109.5C 370.5,103.167 370.5,96.8333 370.5,90.5 Z"/></g>
<g><path style="opacity:1" fill="#908e8f" d="M 485.5,90.5 C 486.568,89.5655 487.901,89.2322 489.5,89.5C 489.5,90.8333 489.5,92.1667 489.5,93.5C 488.167,93.5 486.833,93.5 485.5,93.5C 486.398,92.8423 487.398,92.1757 488.5,91.5C 487.675,90.6143 486.675,90.281 485.5,90.5 Z"/></g>
<g><path style="opacity:1" fill="#777576" d="M 221.5,91.5 C 221.025,94.0821 221.692,96.0821 223.5,97.5C 222.791,98.404 221.791,98.7373 220.5,98.5C 220.198,95.9407 220.532,93.6074 221.5,91.5 Z"/></g>
<g><path style="opacity:1" fill="#c2c1c2" d="M 333.5,90.5 C 331.712,90.2148 330.045,90.5481 328.5,91.5C 330.291,92.1698 331.958,92.8365 333.5,93.5C 326.667,92.6704 324,95.6704 325.5,102.5C 324.686,100.369 324.186,98.0356 324,95.5C 323.617,96.056 323.117,96.3893 322.5,96.5C 322.84,93.3252 324.507,91.1585 327.5,90C 329.712,89.2109 331.712,89.3775 333.5,90.5 Z"/></g>
<g><path style="opacity:1" fill="#555455" d="M 476.5,90.5 C 477.404,91.209 477.737,92.209 477.5,93.5C 476.167,93.5 474.833,93.5 473.5,93.5C 473.821,99.0262 473.488,104.36 472.5,109.5C 472.5,103.833 472.5,98.1667 472.5,92.5C 474.483,92.8432 475.817,92.1765 476.5,90.5 Z"/></g>
<g><path style="opacity:1" fill="#262223" d="M 333.5,93.5 C 334.458,93.9528 335.292,94.6195 336,95.5C 336.817,98.9643 336.483,102.298 335,105.5C 330.505,108.613 327.339,107.613 325.5,102.5C 324,95.6704 326.667,92.6704 333.5,93.5 Z"/></g>
<g><path style="opacity:1" fill="#2a2627" d="M 448.5,93.5 C 449.458,93.9528 450.292,94.6195 451,95.5C 452.151,99.8288 451.318,103.662 448.5,107C 444.795,108.313 442.462,107.146 441.5,103.5C 440.456,97.5831 442.789,94.2498 448.5,93.5 Z"/></g>
<g><path style="opacity:1" fill="#e0dfdf" d="M 538.5,108.5 C 536.865,104.427 535.865,100.094 535.5,95.5C 533.047,91.6004 530.547,91.6004 528,95.5C 527.501,100.155 527.334,104.821 527.5,109.5C 526.5,109.5 525.5,109.5 524.5,109.5C 524.666,104.821 524.499,100.155 524,95.5C 521.333,92.8333 518.667,92.8333 516,95.5C 515.501,100.155 515.334,104.821 515.5,109.5C 514.5,109.5 513.5,109.5 512.5,109.5C 512.5,103.167 512.5,96.8333 512.5,90.5C 514.143,90.4802 515.476,91.1468 516.5,92.5C 519.835,89.9289 523.168,89.9289 526.5,92.5C 530.813,88.2105 534.647,88.5438 538,93.5C 538.499,98.4889 538.666,103.489 538.5,108.5 Z"/></g>
<g><path style="opacity:1" fill="#fafafa" d="M 253.5,175.5 C 251.162,173.96 248.495,173.294 245.5,173.5C 238.828,172.165 232.161,170.832 225.5,169.5C 223.485,168.076 221.152,167.41 218.5,167.5C 215.763,167.599 213.096,167.265 210.5,166.5C 208.162,164.96 205.495,164.294 202.5,164.5C 197.851,164.071 193.351,163.071 189,161.5C 188.333,143.833 188.333,126.167 189,108.5C 205.034,104.593 221.201,101.26 237.5,98.5C 241.761,98.1016 245.761,97.1016 249.5,95.5C 253.131,94.588 256.797,94.4213 260.5,95C 264.139,96.325 267.806,97.4917 271.5,98.5C 271.5,122.833 271.5,147.167 271.5,171.5C 267.56,171.758 263.893,172.924 260.5,175C 258.19,175.497 255.857,175.663 253.5,175.5 Z"/></g>
<g><path style="opacity:1" fill="#959394" d="M 249.5,95.5 C 245.761,97.1016 241.761,98.1016 237.5,98.5C 241.163,96.5841 245.163,95.5841 249.5,95.5 Z"/></g>
<g><path style="opacity:1" fill="#bebcbd" d="M 535.5,95.5 C 535.865,100.094 536.865,104.427 538.5,108.5C 537.791,109.404 536.791,109.737 535.5,109.5C 535.5,104.833 535.5,100.167 535.5,95.5 Z"/></g>
<g><path style="opacity:1" fill="#545353" d="M 448.5,93.5 C 442.789,94.2498 440.456,97.5831 441.5,103.5C 439.761,99.6073 440.427,96.1073 443.5,93C 445.387,92.2204 447.054,92.3871 448.5,93.5 Z"/></g>
<g><path style="opacity:1" fill="#e0dfe0" d="M 482.5,90.5 C 482.345,93.8531 483.012,94.1864 484.5,91.5C 484.5,90.8333 484.833,90.5 485.5,90.5C 486.675,90.281 487.675,90.6143 488.5,91.5C 487.398,92.1757 486.398,92.8423 485.5,93.5C 484.21,94.0577 483.377,95.0577 483,96.5C 482.501,100.821 482.334,105.154 482.5,109.5C 481.5,109.5 480.5,109.5 479.5,109.5C 479.5,103.167 479.5,96.8333 479.5,90.5C 480.5,90.5 481.5,90.5 482.5,90.5 Z"/></g>
<g><path style="opacity:1" fill="#7b7b7b" d="M 482.5,90.5 C 483.167,90.8333 483.833,91.1667 484.5,91.5C 483.012,94.1864 482.345,93.8531 482.5,90.5 Z"/></g>
<g><path style="opacity:1" fill="#dbdadb" d="M 345.5,94.5 C 345.814,97.9466 346.648,101.28 348,104.5C 348.667,105.833 349.333,105.833 350,104.5C 350.49,103.207 350.657,101.873 350.5,100.5C 352.023,97.3703 352.689,94.037 352.5,90.5C 353.978,90.238 355.311,90.5713 356.5,91.5C 357.71,95.562 359.043,99.562 360.5,103.5C 361.409,99.13 362.409,94.7967 363.5,90.5C 364.5,90.5 365.5,90.5 366.5,90.5C 364.754,96.7394 363.421,103.073 362.5,109.5C 361.022,109.762 359.689,109.429 358.5,108.5C 357.165,104.828 355.832,101.161 354.5,97.5C 352.557,101.263 351.223,105.263 350.5,109.5C 349.178,109.67 348.011,109.337 347,108.5C 344.981,102.613 343.481,96.6133 342.5,90.5C 343.5,90.5 344.5,90.5 345.5,90.5C 345.5,91.8333 345.5,93.1667 345.5,94.5 Z"/></g>
<g><path style="opacity:1" fill="#dedddd" d="M 422.5,90.5 C 426.603,89.7691 430.103,90.7691 433,93.5C 433.499,98.8229 433.666,104.156 433.5,109.5C 431.876,109.64 430.71,108.973 430,107.5C 426.619,111.485 423.286,111.485 420,107.5C 419.022,104.331 419.522,101.497 421.5,99C 424.432,98.0467 427.432,97.5467 430.5,97.5C 429.156,92.1516 426.156,91.1516 421.5,94.5C 421.167,94 420.833,93.5 420.5,93C 421.056,91.9889 421.722,91.1556 422.5,90.5 Z"/></g>
<g><path style="opacity:1" fill="#2e2b2c" d="M 423.5,100.5 C 425.833,100.5 428.167,100.5 430.5,100.5C 430.389,105.796 427.889,107.796 423,106.5C 422.322,104.402 422.489,102.402 423.5,100.5 Z"/></g>
<g><path style="opacity:1" fill="#afaeaf" d="M 345.5,94.5 C 346.933,97.2823 348.1,100.282 349,103.5C 349.232,102.263 349.732,101.263 350.5,100.5C 350.657,101.873 350.49,103.207 350,104.5C 349.333,105.833 348.667,105.833 348,104.5C 346.648,101.28 345.814,97.9466 345.5,94.5 Z"/></g>
<g><path style="opacity:1" fill="#d3d2d3" d="M 404.5,89.5 C 416.322,90.8077 419.489,96.8077 414,107.5C 408.384,111.913 403.384,111.246 399,105.5C 397.016,98.6603 398.85,93.3269 404.5,89.5 Z"/></g>
<g><path style="opacity:1" fill="#262324" d="M 403.5,93.5 C 411.515,92.7996 414.348,96.4662 412,104.5C 408.157,108.729 404.823,108.395 402,103.5C 401.037,99.8513 401.537,96.518 403.5,93.5 Z"/></g>
<g><path style="opacity:1" fill="#dedddd" d="M 333.5,90.5 C 337.641,91.8093 339.641,94.6426 339.5,99C 339.2,108.648 334.533,111.981 325.5,109C 321.775,105.358 320.775,101.191 322.5,96.5C 323.117,96.3893 323.617,96.056 324,95.5C 324.186,98.0356 324.686,100.369 325.5,102.5C 327.339,107.613 330.505,108.613 335,105.5C 336.483,102.298 336.817,98.9643 336,95.5C 335.292,94.6195 334.458,93.9528 333.5,93.5C 331.958,92.8365 330.291,92.1698 328.5,91.5C 330.045,90.5481 331.712,90.2148 333.5,90.5 Z"/></g>
<g><path style="opacity:1" fill="#e5e4e5" d="M 494.5,90.5 C 508.575,89.7462 512.242,95.5795 505.5,108C 493.96,111.799 489.127,107.633 491,95.5C 491.997,93.6769 493.164,92.0103 494.5,90.5 Z"/></g>
<g><path style="opacity:1" fill="#706e6e" d="M 495.5,94.5 C 494.701,97.4299 494.368,100.43 494.5,103.5C 493.366,101.034 493.199,98.367 494,95.5C 494.383,94.944 494.883,94.6107 495.5,94.5 Z"/></g>
<g><path style="opacity:1" fill="#272325" d="M 502.5,93.5 C 506.019,97.1571 506.352,101.157 503.5,105.5C 499.515,108.639 496.515,107.972 494.5,103.5C 494.368,100.43 494.701,97.4299 495.5,94.5C 497.764,93.7814 500.097,93.448 502.5,93.5 Z"/></g>
<g><path style="opacity:1" fill="#7a7879" d="M 502.5,93.5 C 500.097,93.448 497.764,93.7814 495.5,94.5C 496.312,93.0069 497.645,92.3402 499.5,92.5C 500.726,92.5195 501.726,92.8529 502.5,93.5 Z"/></g>
<g><path style="opacity:1" fill="#4f4d4e" d="M 451.5,108.5 C 452.209,109.404 453.209,109.737 454.5,109.5C 450.5,110.833 446.5,110.833 442.5,109.5C 445.466,109.89 448.132,109.223 450.5,107.5C 451.107,107.624 451.44,107.957 451.5,108.5 Z"/></g>
<g><path style="opacity:1" fill="#231f20" d="M 239.5,115.5 C 239.5,120.833 239.5,126.167 239.5,131.5C 233.5,131.5 227.5,131.5 221.5,131.5C 221.5,127.167 221.5,122.833 221.5,118.5C 221.5,118.167 221.5,117.833 221.5,117.5C 227.474,116.615 233.474,115.949 239.5,115.5 Z"/></g>
<g><path style="opacity:1" fill="#3c3a3b" d="M 213.5,119.5 C 213.842,118.662 214.508,118.328 215.5,118.5C 216.5,118.5 217.5,118.5 218.5,118.5C 218.5,123.167 218.5,127.833 218.5,132.5C 213.5,132.5 208.5,132.5 203.5,132.5C 203.5,128.167 203.5,123.833 203.5,119.5C 206.5,119.5 209.5,119.5 212.5,119.5C 210.052,120.473 207.385,120.806 204.5,120.5C 204.5,124.167 204.5,127.833 204.5,131.5C 208.833,131.5 213.167,131.5 217.5,131.5C 217.5,127.5 217.5,123.5 217.5,119.5C 216.167,119.5 214.833,119.5 213.5,119.5 Z"/></g>
<g><path style="opacity:1" fill="#d2d2d1" d="M 215.5,118.5 C 217.265,117.539 219.265,117.205 221.5,117.5C 221.5,117.833 221.5,118.167 221.5,118.5C 220.514,122.97 220.181,127.637 220.5,132.5C 226.833,132.5 233.167,132.5 239.5,132.5C 227.5,133.833 215.5,133.833 203.5,132.5C 208.5,132.5 213.5,132.5 218.5,132.5C 218.5,127.833 218.5,123.167 218.5,118.5C 217.5,118.5 216.5,118.5 215.5,118.5 Z"/></g>
<g><path style="opacity:1" fill="#201c1d" d="M 212.5,119.5 C 212.833,119.5 213.167,119.5 213.5,119.5C 214.833,119.5 216.167,119.5 217.5,119.5C 217.5,123.5 217.5,127.5 217.5,131.5C 213.167,131.5 208.833,131.5 204.5,131.5C 204.5,127.833 204.5,124.167 204.5,120.5C 207.385,120.806 210.052,120.473 212.5,119.5 Z"/></g>
<g><path style="opacity:1" fill="#e5e5e5" d="M 411.5,124.5 C 411.5,138.5 411.5,152.5 411.5,166.5C 409.833,166.5 408.167,166.5 406.5,166.5C 406.649,165.448 406.483,164.448 406,163.5C 399.96,169.103 394.293,168.769 389,162.5C 384.578,153.17 386.078,145.003 393.5,138C 397.731,137.081 401.731,137.581 405.5,139.5C 405.369,140.376 405.702,141.043 406.5,141.5C 407.495,135.872 407.829,130.206 407.5,124.5C 408.833,124.5 410.167,124.5 411.5,124.5 Z"/></g>
<g><path style="opacity:1" fill="#d5d4d4" d="M 348.5,125.5 C 353.159,125.015 354.492,126.848 352.5,131C 347.728,131.81 346.395,129.977 348.5,125.5 Z"/></g>
<g><path style="opacity:1" fill="#817f80" d="M 411.5,124.5 C 410.167,124.5 408.833,124.5 407.5,124.5C 407.829,130.206 407.495,135.872 406.5,141.5C 405.702,141.043 405.369,140.376 405.5,139.5C 406.488,134.36 406.821,129.026 406.5,123.5C 408.415,123.216 410.081,123.549 411.5,124.5 Z"/></g>
<g><path style="opacity:1" fill="#e7e6e6" d="M 536.5,126.5 C 537.72,128.284 537.72,129.95 536.5,131.5C 532.148,129.899 527.981,130.233 524,132.5C 523.333,134.833 523.333,137.167 524,139.5C 528.485,143.408 533.152,147.074 538,150.5C 541.308,161.197 537.308,166.531 526,166.5C 520.432,167.948 517.932,165.948 518.5,160.5C 521.259,161.885 524.259,162.552 527.5,162.5C 533.292,162.2 535.459,159.2 534,153.5C 529.152,150.074 524.485,146.408 520,142.5C 516.212,132.438 519.712,126.772 530.5,125.5C 532.548,125.672 534.548,126.005 536.5,126.5 Z"/></g>
<g><path style="opacity:1" fill="#e7e7e7" d="M 296.5,126.5 C 298.167,126.5 299.833,126.5 301.5,126.5C 303.881,136.821 306.381,147.154 309,157.5C 312.583,147.745 315.583,137.745 318,127.5C 319.699,126.594 321.533,126.261 323.5,126.5C 325.69,136.926 328.357,147.26 331.5,157.5C 334.663,147.372 337.33,137.038 339.5,126.5C 341.167,126.5 342.833,126.5 344.5,126.5C 340.961,139.784 337.627,153.118 334.5,166.5C 332.5,166.5 330.5,166.5 328.5,166.5C 326.923,156.523 324.256,146.857 320.5,137.5C 316.574,146.781 313.908,156.447 312.5,166.5C 310.5,166.5 308.5,166.5 306.5,166.5C 303.036,153.176 299.703,139.843 296.5,126.5 Z"/></g>
<g><path style="opacity:1" fill="#515050" d="M 239.5,115.5 C 240.833,121.167 240.833,126.833 239.5,132.5C 233.167,132.5 226.833,132.5 220.5,132.5C 220.181,127.637 220.514,122.97 221.5,118.5C 221.5,122.833 221.5,127.167 221.5,131.5C 227.5,131.5 233.5,131.5 239.5,131.5C 239.5,126.167 239.5,120.833 239.5,115.5 Z"/></g>
<g><path style="opacity:1" fill="#716d6e" d="M 536.5,126.5 C 537.693,126.97 538.36,127.97 538.5,129.5C 538.167,130.5 537.833,131.5 537.5,132.5C 536.893,132.376 536.56,132.043 536.5,131.5C 537.72,129.95 537.72,128.284 536.5,126.5 Z"/></g>
<g><path style="opacity:1" fill="#f3f3f3" d="M 546.5,130.5 C 547.833,130.5 549.167,130.5 550.5,130.5C 550.5,132.833 550.5,135.167 550.5,137.5C 552.265,138.461 554.265,138.795 556.5,138.5C 556.5,139.5 556.5,140.5 556.5,141.5C 554.265,141.205 552.265,141.539 550.5,142.5C 550.334,148.509 550.501,154.509 551,160.5C 551.278,161.416 551.778,162.082 552.5,162.5C 553.568,163.434 554.901,163.768 556.5,163.5C 556.5,164.5 556.5,165.5 556.5,166.5C 553.753,166.813 551.086,166.48 548.5,165.5C 547.37,164.378 546.703,163.044 546.5,161.5C 546.5,154.833 546.5,148.167 546.5,141.5C 544.833,141.5 543.167,141.5 541.5,141.5C 541.5,140.5 541.5,139.5 541.5,138.5C 543.167,138.5 544.833,138.5 546.5,138.5C 546.5,135.833 546.5,133.167 546.5,130.5 Z"/></g>
<g><path style="opacity:1" fill="#787677" d="M 230.5,152.5 C 233.5,152.5 236.5,152.5 239.5,152.5C 239.5,146.833 239.5,141.167 239.5,135.5C 233.5,135.5 227.5,135.5 221.5,135.5C 221.5,140.5 221.5,145.5 221.5,150.5C 220.512,145.36 220.179,140.026 220.5,134.5C 227.167,134.5 233.833,134.5 240.5,134.5C 240.5,140.833 240.5,147.167 240.5,153.5C 236.958,153.813 233.625,153.479 230.5,152.5 Z"/></g>
<g><path style="opacity:1" fill="#231f20" d="M 216.5,149.5 C 212.766,149.677 209.099,149.344 205.5,148.5C 204.564,144.265 204.231,139.931 204.5,135.5C 208.833,135.5 213.167,135.5 217.5,135.5C 217.819,140.363 217.486,145.03 216.5,149.5 Z"/></g>
<g><path style="opacity:1" fill="#3f3e3f" d="M 216.5,149.5 C 217.486,145.03 217.819,140.363 217.5,135.5C 213.167,135.5 208.833,135.5 204.5,135.5C 204.231,139.931 204.564,144.265 205.5,148.5C 203.564,144.285 202.897,139.619 203.5,134.5C 208.5,134.5 213.5,134.5 218.5,134.5C 218.828,139.875 218.495,145.208 217.5,150.5C 216.893,150.376 216.56,150.043 216.5,149.5 Z"/></g>
<g><path style="opacity:1" fill="#211d1e" d="M 230.5,152.5 C 227.781,151.087 224.781,150.42 221.5,150.5C 221.5,145.5 221.5,140.5 221.5,135.5C 227.5,135.5 233.5,135.5 239.5,135.5C 239.5,141.167 239.5,146.833 239.5,152.5C 236.5,152.5 233.5,152.5 230.5,152.5 Z"/></g>
<g><path style="opacity:1" fill="#908f90" d="M 546.5,130.5 C 546.5,133.167 546.5,135.833 546.5,138.5C 544.833,138.5 543.167,138.5 541.5,138.5C 542.568,137.566 543.901,137.232 545.5,137.5C 545.198,134.941 545.532,132.607 546.5,130.5 Z"/></g>
<g><path style="opacity:1" fill="#8b8a8a" d="M 550.5,137.5 C 552.833,137.5 555.167,137.5 557.5,137.5C 557.5,139.167 557.5,140.833 557.5,142.5C 555.167,142.5 552.833,142.5 550.5,142.5C 552.265,141.539 554.265,141.205 556.5,141.5C 556.5,140.5 556.5,139.5 556.5,138.5C 554.265,138.795 552.265,138.461 550.5,137.5 Z"/></g>
<g><path style="opacity:1" fill="#e5e5e5" d="M 359.5,166.5 C 359.5,157.167 359.5,147.833 359.5,138.5C 360.833,138.5 362.167,138.5 363.5,138.5C 363.351,139.552 363.517,140.552 364,141.5C 367.308,137.673 371.474,136.506 376.5,138C 378.333,139.167 379.833,140.667 381,142.5C 381.5,150.493 381.666,158.493 381.5,166.5C 379.833,166.5 378.167,166.5 376.5,166.5C 376.831,158.804 376.497,151.138 375.5,143.5C 370.538,140.188 366.705,141.188 364,146.5C 363.5,153.158 363.334,159.825 363.5,166.5C 362.167,166.5 360.833,166.5 359.5,166.5 Z"/></g>
<g><path style="opacity:1" fill="#e4e4e4" d="M 424.5,137.5 C 439.149,136.315 445.315,142.982 443,157.5C 439.196,166.067 432.696,168.901 423.5,166C 416.044,159.395 414.544,151.562 419,142.5C 420.73,140.598 422.563,138.931 424.5,137.5 Z"/></g>
<g><path style="opacity:1" fill="#e3e2e3" d="M 460.5,156.5 C 459.076,158.515 458.41,160.848 458.5,163.5C 457.32,165.913 455.32,166.913 452.5,166.5C 450.465,156.998 447.799,147.665 444.5,138.5C 446.353,137.24 448.186,137.24 450,138.5C 451.738,145.211 453.571,151.878 455.5,158.5C 457.521,151.605 459.854,144.772 462.5,138C 464.112,137.28 465.612,137.446 467,138.5C 467.751,145.175 469.584,151.508 472.5,157.5C 474.909,151.345 476.742,145.011 478,138.5C 479.494,137.253 480.994,137.253 482.5,138.5C 479.999,147.172 477.499,155.839 475,164.5C 473.599,166.192 471.766,166.859 469.5,166.5C 468.182,159.377 466.349,152.377 464,145.5C 461.924,148.893 460.758,152.56 460.5,156.5 Z"/></g>
<g><path style="opacity:1" fill="#e8e7e7" d="M 489.5,137.5 C 492.833,137.5 496.167,137.5 499.5,137.5C 499.5,139.167 499.5,140.833 499.5,142.5C 496.531,141.671 493.531,141.505 490.5,142C 488.876,145.206 489.542,147.872 492.5,150C 499.588,151.42 502.088,155.587 500,162.5C 496.34,166.367 491.84,167.534 486.5,166C 484.503,164.847 484.17,163.347 485.5,161.5C 488.773,162.585 492.106,162.752 495.5,162C 496.935,159.733 496.602,157.733 494.5,156C 486.815,154.003 483.648,149.169 485,141.5C 486.397,139.93 487.897,138.596 489.5,137.5 Z"/></g>
<g><path style="opacity:1" fill="#e7e6e7" d="M 568.5,137.5 C 585.15,136.82 590.65,144.487 585,160.5C 579.864,167.719 573.364,169.219 565.5,165C 557.978,154.708 558.978,145.541 568.5,137.5 Z"/></g>
<g><path style="opacity:1" fill="#eaeaea" d="M 605.5,141.5 C 602.612,142.01 600.279,141.344 598.5,139.5C 598.611,138.883 598.944,138.383 599.5,138C 601.473,137.505 603.473,137.338 605.5,137.5C 605.5,138.833 605.5,140.167 605.5,141.5 Z"/></g>
<g><path style="opacity:1" fill="#eaeaea" d="M 615.5,137.5 C 627.5,136.167 632.833,141.5 631.5,153.5C 625.167,153.5 618.833,153.5 612.5,153.5C 612.656,156.841 613.989,159.674 616.5,162C 620.859,162.534 625.192,162.368 629.5,161.5C 629.67,162.822 629.337,163.989 628.5,165C 612.246,168.748 605.746,162.248 609,145.5C 610.305,142.039 612.471,139.372 615.5,137.5 Z"/></g>
<g><path style="opacity:1" fill="#8a888a" d="M 363.5,138.5 C 362.167,138.5 360.833,138.5 359.5,138.5C 359.5,147.833 359.5,157.167 359.5,166.5C 358.506,157.014 358.173,147.348 358.5,137.5C 360.415,137.216 362.081,137.549 363.5,138.5 Z"/></g>
<g><path style="opacity:1" fill="#fbfbfb" d="M 597.5,144.5 C 596.89,145.391 596.557,146.391 596.5,147.5C 595.51,153.31 595.177,159.31 595.5,165.5C 594.5,165.5 593.5,165.5 592.5,165.5C 592.5,156.5 592.5,147.5 592.5,138.5C 593.5,138.5 594.5,138.5 595.5,138.5C 595.259,140.886 595.925,142.886 597.5,144.5 Z"/></g>
<g><path style="opacity:1" fill="#6b6a69" d="M 352.5,166.5 C 352.827,156.985 352.494,147.652 351.5,138.5C 350.5,138.5 349.5,138.5 348.5,138.5C 348.5,147.5 348.5,156.5 348.5,165.5C 348.5,165.833 348.5,166.167 348.5,166.5C 347.506,157.014 347.173,147.348 347.5,137.5C 349.5,137.5 351.5,137.5 353.5,137.5C 353.827,147.348 353.494,157.014 352.5,166.5 Z"/></g>
<g><path style="opacity:1" fill="#f9f9f9" d="M 351.5,138.5 C 351.5,147.5 351.5,156.5 351.5,165.5C 350.5,165.5 349.5,165.5 348.5,165.5C 348.5,156.5 348.5,147.5 348.5,138.5C 349.5,138.5 350.5,138.5 351.5,138.5 Z"/></g>
<g><path style="opacity:1" fill="#d3d3d1" d="M 351.5,138.5 C 352.494,147.652 352.827,156.985 352.5,166.5C 351.167,166.5 349.833,166.5 348.5,166.5C 348.5,166.167 348.5,165.833 348.5,165.5C 349.5,165.5 350.5,165.5 351.5,165.5C 351.5,156.5 351.5,147.5 351.5,138.5 Z"/></g>
<g><path style="opacity:1" fill="#b6b4b5" d="M 598.5,139.5 C 600.279,141.344 602.612,142.01 605.5,141.5C 602.728,142.082 600.061,143.082 597.5,144.5C 595.925,142.886 595.259,140.886 595.5,138.5C 594.5,138.5 593.5,138.5 592.5,138.5C 592.5,147.5 592.5,156.5 592.5,165.5C 593.5,165.5 594.5,165.5 595.5,165.5C 595.177,159.31 595.51,153.31 596.5,147.5C 596.5,153.833 596.5,160.167 596.5,166.5C 594.833,166.5 593.167,166.5 591.5,166.5C 591.5,156.833 591.5,147.167 591.5,137.5C 593.167,137.5 594.833,137.5 596.5,137.5C 596.131,139.993 596.797,140.66 598.5,139.5 Z"/></g>
<g><path style="opacity:1" fill="#231f20" d="M 395.5,141.5 C 399.401,140.857 402.734,141.857 405.5,144.5C 406.661,148.795 406.828,153.129 406,157.5C 403.928,162.143 400.428,163.643 395.5,162C 393.951,160.786 392.785,159.286 392,157.5C 390.52,151.451 391.686,146.118 395.5,141.5 Z"/></g>
<g><path style="opacity:1" fill="#262223" d="M 425.5,141.5 C 436.98,140.719 441.146,146.052 438,157.5C 437.215,159.286 436.049,160.786 434.5,162C 428.966,163.787 424.799,162.287 422,157.5C 420.52,151.451 421.686,146.118 425.5,141.5 Z"/></g>
<g><path style="opacity:1" fill="#252122" d="M 569.5,141.5 C 579.481,140.981 583.648,145.648 582,155.5C 580.381,162.167 576.214,164.333 569.5,162C 568.333,160.833 567.167,159.667 566,158.5C 565.333,154.167 565.333,149.833 566,145.5C 567.376,144.295 568.542,142.962 569.5,141.5 Z"/></g>
<g><path style="opacity:1" fill="#252223" d="M 626.5,145.5 C 626.5,146.5 626.5,147.5 626.5,148.5C 621.706,149.097 617.373,148.43 613.5,146.5C 615.21,141.817 618.543,140.317 623.5,142C 625.063,142.759 626.063,143.926 626.5,145.5 Z"/></g>
<g><path style="opacity:1" fill="#848283" d="M 541.5,141.5 C 543.167,141.5 544.833,141.5 546.5,141.5C 546.5,148.167 546.5,154.833 546.5,161.5C 545.51,155.355 545.177,149.022 545.5,142.5C 543.901,142.768 542.568,142.434 541.5,141.5 Z"/></g>
<g><path style="opacity:1" fill="#5f5d5e" d="M 626.5,145.5 C 627.434,146.568 627.768,147.901 627.5,149.5C 622.5,149.5 617.5,149.5 612.5,149.5C 612.263,148.209 612.596,147.209 613.5,146.5C 617.373,148.43 621.706,149.097 626.5,148.5C 626.5,147.5 626.5,146.5 626.5,145.5 Z"/></g>
<g><path style="opacity:1" fill="#939293" d="M 221.5,150.5 C 224.781,150.42 227.781,151.087 230.5,152.5C 227.219,152.58 224.219,151.913 221.5,150.5 Z"/></g>
<g><path style="opacity:1" fill="#5e5c5d" d="M 460.5,156.5 C 460.59,159.152 459.924,161.485 458.5,163.5C 458.41,160.848 459.076,158.515 460.5,156.5 Z"/></g>
<g><path style="opacity:1" fill="#a9a8a9" d="M 552.5,162.5 C 554.167,162.5 555.833,162.5 557.5,162.5C 557.768,164.099 557.434,165.432 556.5,166.5C 556.5,165.5 556.5,164.5 556.5,163.5C 554.901,163.768 553.568,163.434 552.5,162.5 Z"/></g>
<g><path style="opacity:1" fill="#7e7c7d" d="M 202.5,164.5 C 205.495,164.294 208.162,164.96 210.5,166.5C 207.572,166.435 204.905,165.768 202.5,164.5 Z"/></g>
<g><path style="opacity:1" fill="#9a9899" d="M 218.5,167.5 C 221.152,167.41 223.485,168.076 225.5,169.5C 222.848,169.59 220.515,168.924 218.5,167.5 Z"/></g>
<g><path style="opacity:1" fill="#7e7c7d" d="M 245.5,173.5 C 248.495,173.294 251.162,173.96 253.5,175.5C 250.572,175.435 247.905,174.768 245.5,173.5 Z"/></g>
<g><path style="opacity:1" fill="#ebebeb" d="M 144.5,206.5 C 320.793,207.497 497.127,207.831 673.5,207.5C 585.501,208.167 497.334,208.5 409,208.5C 320.497,208.5 232.331,207.833 144.5,206.5 Z"/></g>
</svg>
